<mxfile host="app.diagrams.net" modified="2022-12-01T06:05:32.017Z" agent="5.0 (Windows NT 10.0; Win64; x64) AppleWebKit/537.36 (KHTML, like Gecko) Chrome/107.0.0.0 Safari/537.36" version="20.6.0" etag="wY6CcEZ-F-0fnTiINh4i" type="github">
  <diagram id="MAo2vdGEB_ihkJWzHzWT" name="第 1 页">
    <mxGraphModel dx="981" dy="526" grid="1" gridSize="10" guides="1" tooltips="1" connect="1" arrows="1" fold="1" page="1" pageScale="1" pageWidth="827" pageHeight="1169" math="0" shadow="0">
      <root>
        <mxCell id="0" />
        <mxCell id="1" parent="0" />
        <mxCell id="JniYUlkNHlWra6w6z7R9-10" style="edgeStyle=orthogonalEdgeStyle;rounded=0;orthogonalLoop=1;jettySize=auto;html=1;exitX=0.5;exitY=1;exitDx=0;exitDy=0;entryX=0.5;entryY=0;entryDx=0;entryDy=0;" edge="1" parent="1" source="JniYUlkNHlWra6w6z7R9-1" target="JniYUlkNHlWra6w6z7R9-4">
          <mxGeometry relative="1" as="geometry">
            <Array as="points">
              <mxPoint x="340" y="250" />
              <mxPoint x="340" y="250" />
            </Array>
          </mxGeometry>
        </mxCell>
        <mxCell id="JniYUlkNHlWra6w6z7R9-16" value="委托" style="edgeLabel;html=1;align=center;verticalAlign=middle;resizable=0;points=[];" vertex="1" connectable="0" parent="JniYUlkNHlWra6w6z7R9-10">
          <mxGeometry x="-0.0069" relative="1" as="geometry">
            <mxPoint as="offset" />
          </mxGeometry>
        </mxCell>
        <mxCell id="JniYUlkNHlWra6w6z7R9-1" value="第二代条件单系统" style="rounded=1;whiteSpace=wrap;html=1;" vertex="1" parent="1">
          <mxGeometry x="280" y="170" width="120" height="60" as="geometry" />
        </mxCell>
        <mxCell id="JniYUlkNHlWra6w6z7R9-12" value="" style="edgeStyle=orthogonalEdgeStyle;rounded=0;orthogonalLoop=1;jettySize=auto;html=1;" edge="1" parent="1" source="JniYUlkNHlWra6w6z7R9-2" target="JniYUlkNHlWra6w6z7R9-1">
          <mxGeometry relative="1" as="geometry" />
        </mxCell>
        <mxCell id="JniYUlkNHlWra6w6z7R9-15" value="下单" style="edgeLabel;html=1;align=center;verticalAlign=middle;resizable=0;points=[];" vertex="1" connectable="0" parent="JniYUlkNHlWra6w6z7R9-12">
          <mxGeometry x="0.208" relative="1" as="geometry">
            <mxPoint x="-7" as="offset" />
          </mxGeometry>
        </mxCell>
        <mxCell id="JniYUlkNHlWra6w6z7R9-2" value="ios/android" style="rounded=1;whiteSpace=wrap;html=1;" vertex="1" parent="1">
          <mxGeometry x="100" y="170" width="120" height="60" as="geometry" />
        </mxCell>
        <mxCell id="JniYUlkNHlWra6w6z7R9-9" style="edgeStyle=orthogonalEdgeStyle;rounded=0;orthogonalLoop=1;jettySize=auto;html=1;exitX=0;exitY=0.5;exitDx=0;exitDy=0;entryX=1;entryY=0.5;entryDx=0;entryDy=0;" edge="1" parent="1" source="JniYUlkNHlWra6w6z7R9-3" target="JniYUlkNHlWra6w6z7R9-1">
          <mxGeometry relative="1" as="geometry" />
        </mxCell>
        <mxCell id="JniYUlkNHlWra6w6z7R9-14" value="触发" style="edgeLabel;html=1;align=center;verticalAlign=middle;resizable=0;points=[];" vertex="1" connectable="0" parent="JniYUlkNHlWra6w6z7R9-9">
          <mxGeometry x="-0.208" y="1" relative="1" as="geometry">
            <mxPoint y="-1" as="offset" />
          </mxGeometry>
        </mxCell>
        <mxCell id="JniYUlkNHlWra6w6z7R9-3" value="恒生行情云" style="rounded=1;whiteSpace=wrap;html=1;" vertex="1" parent="1">
          <mxGeometry x="460" y="170" width="120" height="60" as="geometry" />
        </mxCell>
        <mxCell id="JniYUlkNHlWra6w6z7R9-11" style="edgeStyle=orthogonalEdgeStyle;rounded=0;orthogonalLoop=1;jettySize=auto;html=1;exitX=0.5;exitY=1;exitDx=0;exitDy=0;entryX=0.5;entryY=0;entryDx=0;entryDy=0;" edge="1" parent="1" source="JniYUlkNHlWra6w6z7R9-4" target="JniYUlkNHlWra6w6z7R9-5">
          <mxGeometry relative="1" as="geometry" />
        </mxCell>
        <mxCell id="JniYUlkNHlWra6w6z7R9-4" value="macs中继" style="rounded=1;whiteSpace=wrap;html=1;" vertex="1" parent="1">
          <mxGeometry x="280" y="270" width="120" height="60" as="geometry" />
        </mxCell>
        <mxCell id="JniYUlkNHlWra6w6z7R9-5" value="CTP柜台" style="rounded=1;whiteSpace=wrap;html=1;" vertex="1" parent="1">
          <mxGeometry x="280" y="350" width="120" height="60" as="geometry" />
        </mxCell>
      </root>
    </mxGraphModel>
  </diagram>
</mxfile>
